# xmcd CD database file
#
# Track frame offsets:
#	150
#	19265
#	47760
#	64375
#	84397
#
# Disc length: 1360 seconds
#
# Revision: 0
# Processed by: cddbd v1.5.2PL0 Copyright (c) Steve Scherf et al.
# Submitted via: CDex 1.70beta2
#
DISCID=3c054e05
DTITLE=divers - Jazzmag n°631 - 11-2011 (1960 Vive l'Avant-Garde)
DYEAR=2011
DGENRE=Jazz
TTITLE0=John Coltrane and Don Cherry - The Invisible
TTITLE1=George Russell Sextet - dance Class
TTITLE2=Joe Harriott Quintet - Abstract
TTITLE3=Cecil Taylor - Port of Call
TTITLE4=Eric Dolphy - Far Cry
EXTD=YEAR: 2011
EXTT0=
EXTT1=
EXTT2=
EXTT3=
EXTT4=
PLAYORDER=
